<svg width="90" height="50" fill="none" xmlns="http://www.w3.org/2000/svg"><g filter="url(#a)" fill="#2196F3"><path d="M17.3896 13.1028h-.0029c-2.4425 0-4.4225 1.7276-4.4225 3.8587v.0025c0 2.1311 1.98 3.8587 4.4225 3.8587h.0029c2.4424 0 4.4224-1.7276 4.4224-3.8587v-.0025c0-2.1311-1.98-3.8587-4.4224-3.8587ZM50.0319 11.8693c-.0069-2.96-1.3574-5.797-3.7559-7.8904C43.8775 1.8858 40.6263.7067 37.234.7c-3.3934.0054-6.6461 1.1838-9.0458 3.2773-2.3998 2.0934-3.7511 4.9312-3.758 7.8921v16.3228s25.5988-2.4877 25.6017-16.3203v-.0025ZM4 33.5495c.0061 2.0596.9463 4.0333 2.6152 5.4899 1.6688 1.4566 3.9305 2.2776 6.2909 2.2837 2.3599-.0061 4.6212-.8268 6.2899-2.2828 1.6687-1.456 2.6093-3.4291 2.6162-5.4883V22.1943S4 23.9266 4 33.5495Zm8.9061 2.0349c-.4613 0-.9122-.1193-1.2957-.3429-.3835-.2236-.6825-.5414-.859-.9133-.1765-.3718-.2227-.781-.1327-1.1757.09-.3948.3121-.7574.6383-1.042.3261-.2846.7417-.4784 1.1941-.5569.4524-.0785.9213-.0382 1.3475.1158.4261.154.7904.4149 1.0467.7495.2562.3346.393.7281.393 1.1306a1.8108 1.8108 0 0 1-.175.7811c-.1167.2477-.2883.473-.505.6627-.2167.1898-.4742.3404-.7577.4431a2.6291 2.6291 0 0 1-.8945.1557v-.0077ZM29.1648 31.9413v4.2656h-.8789v-4.2656h.8789Zm1.6992 1.8222v.6856h-1.9394v-.6856h1.9394Zm.2051-1.8222v.6885h-2.1445v-.6885h2.1445Zm4.0137 2.0332v.2021c0 .3243-.044.6153-.1319.8731-.0879.2578-.2119.4775-.372.6592a1.6141 1.6141 0 0 1-.5743.413c-.2207.0958-.4658.1436-.7353.1436-.2676 0-.5127-.0478-.7354-.1436a1.6488 1.6488 0 0 1-.5742-.413c-.1621-.1817-.2881-.4014-.3779-.6592-.0879-.2578-.1318-.5488-.1318-.8731v-.2021c0-.3262.0439-.6172.1318-.8731.0879-.2578.2119-.4775.3721-.6591a1.6308 1.6308 0 0 1 .5742-.4161c.2226-.0957.4677-.1435.7353-.1435.2696 0 .5147.0478.7354.1435.2226.0957.414.2344.5742.4161.1621.1816.2871.4013.375.6591.0898.2559.1348.5469.1348.8731Zm-.8877.2021v-.208c0-.2265-.0205-.4258-.0616-.5976-.041-.1719-.1015-.3164-.1816-.4336-.0801-.1172-.1777-.2051-.293-.2637-.1152-.0605-.247-.0908-.3955-.0908-.1484 0-.2802.0303-.3955.0908-.1133.0586-.2099.1465-.29.2637-.0781.1172-.1377.2617-.1787.4336-.041.1718-.0616.3711-.0616.5976v.208c0 .2246.0206.4239.0616.5977.041.1719.1015.3174.1816.4365.0801.1172.1777.2061.293.2666.1152.0606.247.0908.3955.0908.1484 0 .2803-.0302.3955-.0908.1152-.0605.2119-.1494.29-.2666.0782-.1191.1377-.2646.1787-.4365.0411-.1738.0616-.3731.0616-.5977Zm3.7412.9141c0-.0762-.0117-.1445-.0352-.2051-.0215-.0625-.0625-.1191-.123-.1699-.0606-.0527-.1455-.1045-.2549-.1553-.1094-.0508-.251-.1035-.4248-.1582a5.3765 5.3765 0 0 1-.5508-.2109c-.1719-.0781-.3242-.169-.457-.2725-.1309-.1054-.2344-.2275-.3106-.3662-.0742-.1387-.1113-.2998-.1113-.4834 0-.1777.0391-.3389.1172-.4834.0781-.1465.1875-.2715.3281-.375.1406-.1055.3067-.1865.4981-.2431.1933-.0567.4052-.085.6357-.085.3145 0 .5889.0566.8232.1699.2344.1133.4161.2686.545.4658.1308.1973.1963.4229.1963.6768h-.8731c0-.125-.0264-.2344-.0791-.3281-.0508-.0957-.1289-.1709-.2344-.2256-.1035-.0547-.2343-.0821-.3925-.0821-.1524 0-.2793.0235-.3809.0704-.1016.0449-.1777.1064-.2285.1845-.0508.0762-.0762.1621-.0762.2578 0 .0723.0176.1377.0527.1963.0372.0586.0918.1133.1641.1641.0723.0508.1611.0986.2666.1435.1055.045.2275.0889.3662.1319.2324.0703.4365.1494.6123.2373.1778.0879.3262.1865.4453.2959.1192.1094.209.2334.2696.3721.0605.1386.0908.2959.0908.4716 0 .1856-.0361.3516-.1084.4981-.0723.1465-.1768.2705-.3135.3721-.1367.1015-.2998.1787-.4892.2314-.1895.0527-.4014.0791-.6358.0791a2.4114 2.4114 0 0 1-.624-.082c-.2051-.0567-.3916-.1416-.5596-.2549a1.2846 1.2846 0 0 1-.3984-.4336c-.0996-.1758-.1494-.3838-.1494-.624h.8818c0 .1328.0205.2451.0615.3369.041.0918.0987.166.1729.2226.0761.0567.166.0977.2695.1231.1055.0254.2207.0381.3457.0381.1524 0 .2774-.0215.375-.0645.0996-.0429.1729-.1025.2197-.1787.0489-.0762.0733-.1621.0733-.2578Zm3.3838-3.1494v4.2656h-.876v-4.2656h.876Zm1.3125 0v.6885h-3.4805v-.6885h3.4805Zm3.3632 3.5801v.6855h-2.2705v-.6855h2.2705Zm-1.9833-3.5801v4.2656h-.879v-4.2656h.879ZM45.7 33.6786v.668h-1.9747v-.668H45.7Zm.2929-1.7373v.6885h-2.2676v-.6885h2.2676Zm.5156 0h1.5909c.3261 0 .6064.0488.8408.1465.2363.0976.418.2422.5449.4336.127.1914.1904.4267.1904.706 0 .2285-.039.4248-.1172.5889a1.1022 1.1022 0 0 1-.3251.4072c-.1387.1074-.3018.1934-.4893.2578l-.2783.1465h-1.3828l-.0059-.6855h1.0283c.1543 0 .2823-.0274.3838-.0821.1016-.0547.1777-.1308.2285-.2285.0528-.0976.0791-.2109.0791-.3398 0-.1367-.0254-.2549-.0761-.3545-.0508-.0996-.128-.1758-.2315-.2285-.1035-.0528-.2334-.0791-.3896-.0791h-.7119v3.5771h-.879v-4.2656Zm2.3848 4.2656-.9726-1.9014.9287-.0058.9843 1.8662v.041h-.9404Zm4.6143-1.5205h-1.0869v-.6855h1.0869c.1679 0 .3047-.0274.4101-.0821.1055-.0566.1826-.1347.2315-.2344.0488-.0996.0732-.2119.0732-.3369 0-.1269-.0244-.2451-.0732-.3545-.0489-.1093-.126-.1972-.2315-.2636-.1054-.0664-.2422-.0996-.4101-.0996h-.7823v3.5771h-.8789v-4.2656h1.6612c.334 0 .6201.0605.8584.1816.2402.1192.4238.2842.5507.4951.127.211.1905.4522.1905.7237 0 .2754-.0635.5136-.1905.7148-.1269.2012-.3105.3565-.5507.4658-.2383.1094-.5244.1641-.8584.1641Zm5.0683.835v.6855h-2.2705v-.6855h2.2705Zm-1.9834-3.5801v4.2656h-.8789v-4.2656h.8789Zm1.6875 1.7373v.668h-1.9746v-.668H58.28Zm.293-1.7373v.6885h-2.2676v-.6885h2.2676Zm2.4814 0v4.2656h-.8759v-4.2656h.8759Zm1.3125 0v.6885h-3.4804v-.6885h3.4804Zm3.3633 3.5801v.6855h-2.2705v-.6855h2.2705Zm-1.9834-3.5801v4.2656h-.8789v-4.2656h.8789Zm1.6875 1.7373v.668h-1.9746v-.668h1.9746Zm.293-1.7373v.6885h-2.2676v-.6885h2.2676Zm.5156 0h1.5908c.3262 0 .6065.0488.8409.1465.2363.0976.4179.2422.5449.4336.1269.1914.1904.4267.1904.706 0 .2285-.0391.4248-.1172.5889a1.1015 1.1015 0 0 1-.3252.4072c-.1386.1074-.3017.1934-.4892.2578l-.2783.1465h-1.3829l-.0058-.6855h1.0283c.1543 0 .2822-.0274.3838-.0821.1016-.0547.1777-.1308.2285-.2285.0527-.0976.0791-.2109.0791-.3398 0-.1367-.0254-.2549-.0762-.3545-.0507-.0996-.1279-.1758-.2314-.2285-.1035-.0528-.2334-.0791-.3897-.0791h-.7119v3.5771h-.8789v-4.2656Zm2.3848 4.2656-.9727-1.9014.9287-.0058.9844 1.8662v.041h-.9404Zm3.6797-1.1162c0-.0762-.0117-.1445-.0352-.2051-.0215-.0625-.0625-.1191-.123-.1699-.0606-.0527-.1455-.1045-.2549-.1553-.1094-.0508-.251-.1035-.4248-.1582a5.3765 5.3765 0 0 1-.5508-.2109c-.1719-.0781-.3242-.169-.457-.2725-.1309-.1054-.2344-.2275-.3106-.3662-.0742-.1387-.1113-.2998-.1113-.4834 0-.1777.0391-.3389.1172-.4834.0781-.1465.1875-.2715.3281-.375.1406-.1055.3066-.1865.4981-.2431.1933-.0567.4052-.085.6357-.085.3144 0 .5889.0566.8232.1699.2344.1133.4161.2686.545.4658.1308.1973.1962.4229.1962.6768h-.873c0-.125-.0264-.2344-.0791-.3281-.0508-.0957-.1289-.1709-.2344-.2256-.1035-.0547-.2343-.0821-.3926-.0821-.1523 0-.2792.0235-.3808.0704-.1016.0449-.1777.1064-.2285.1845-.0508.0762-.0762.1621-.0762.2578 0 .0723.0176.1377.0527.1963.0371.0586.0918.1133.1641.1641.0723.0508.1611.0986.2666.1435.1055.045.2275.0889.3662.1319.2324.0703.4365.1494.6123.2373.1777.0879.3262.1865.4453.2959.1192.1094.209.2334.2696.3721.0605.1386.0908.2959.0908.4716 0 .1856-.0362.3516-.1084.4981-.0723.1465-.1768.2705-.3135.3721-.1367.1015-.2998.1787-.4893.2314-.1894.0527-.4013.0791-.6357.0791a2.4114 2.4114 0 0 1-.624-.082c-.2051-.0567-.3916-.1416-.5596-.2549a1.2846 1.2846 0 0 1-.3984-.4336c-.0996-.1758-.1494-.3838-.1494-.624h.8818c0 .1328.0205.2451.0615.3369.041.0918.0987.166.1729.2226.0761.0567.166.0977.2695.1231.1055.0254.2207.0381.3457.0381.1523 0 .2773-.0215.375-.0645.0996-.0429.1729-.1025.2197-.1787.0489-.0762.0733-.1621.0733-.2578Z"/></g><defs><filter id="a" x="0" y=".7" width="77.1863" height="48.623" filterUnits="userSpaceOnUse" color-interpolation-filters="sRGB"><feFlood flood-opacity="0" result="BackgroundImageFix"/><feColorMatrix in="SourceAlpha" values="0 0 0 0 0 0 0 0 0 0 0 0 0 0 0 0 0 0 127 0" result="hardAlpha"/><feOffset dy="4"/><feGaussianBlur stdDeviation="2"/><feComposite in2="hardAlpha" operator="out"/><feColorMatrix values="0 0 0 0 0 0 0 0 0 0 0 0 0 0 0 0 0 0 0.25 0"/><feBlend in2="BackgroundImageFix" result="effect1_dropShadow_1_815"/><feBlend in="SourceGraphic" in2="effect1_dropShadow_1_815" result="shape"/></filter></defs></svg>