<svg width="90" height="50" viewBox="0 0 90 50" fill="none" xmlns="http://www.w3.org/2000/svg">
<g filter="url(#filter0_d_1_815)">
<path d="M17.3896 13.1028H17.3867C14.9442 13.1028 12.9642 14.8304 12.9642 16.9615V16.964C12.9642 19.0951 14.9442 20.8227 17.3867 20.8227H17.3896C19.832 20.8227 21.812 19.0951 21.812 16.964V16.9615C21.812 14.8304 19.832 13.1028 17.3896 13.1028Z" fill="#2196F3"/>
<path d="M50.0319 11.8693C50.025 8.90929 48.6745 6.07223 46.276 3.97895C43.8775 1.88568 40.6263 0.706672 37.234 0.699951V0.699951C33.8406 0.705328 30.5879 1.88374 28.1882 3.97716C25.7884 6.07058 24.4371 8.90841 24.4302 11.8693V11.8693V28.1921C24.4302 28.1921 50.029 25.7044 50.0319 11.8718V11.8693Z" fill="#2196F3"/>
<path d="M4 33.5495C4.00615 35.6091 4.94635 37.5828 6.61516 39.0394C8.28396 40.496 10.5457 41.317 12.9061 41.3231V41.3231C15.266 41.317 17.5273 40.4963 19.196 39.0403C20.8647 37.5843 21.8053 35.6112 21.8122 33.552V33.552V22.1943C21.8122 22.1943 4 23.9266 4 33.5495ZM12.9061 35.5844C12.4448 35.5844 11.9939 35.4651 11.6104 35.2415C11.2269 35.0179 10.9279 34.7001 10.7514 34.3282C10.5749 33.9564 10.5287 33.5472 10.6187 33.1525C10.7087 32.7577 10.9308 32.3951 11.257 32.1105C11.5831 31.8259 11.9987 31.6321 12.4511 31.5536C12.9035 31.4751 13.3724 31.5154 13.7986 31.6694C14.2247 31.8234 14.589 32.0843 14.8453 32.4189C15.1015 32.7535 15.2383 33.147 15.2383 33.5495C15.2395 33.8173 15.18 34.0828 15.0633 34.3306C14.9466 34.5783 14.775 34.8036 14.5583 34.9933C14.3416 35.1831 14.0841 35.3337 13.8006 35.4364C13.5171 35.5392 13.2131 35.5921 12.9061 35.5921V35.5844Z" fill="#2196F3"/>
<path d="M29.1648 31.9413V36.2069H28.2859V31.9413H29.1648ZM30.864 33.7635V34.4491H28.9246V33.7635H30.864ZM31.0691 31.9413V32.6298H28.9246V31.9413H31.0691ZM35.0828 33.9745V34.1766C35.0828 34.5009 35.0388 34.7919 34.9509 35.0497C34.863 35.3075 34.739 35.5272 34.5789 35.7089C34.4187 35.8885 34.2273 36.0262 34.0046 36.1219C33.7839 36.2177 33.5388 36.2655 33.2693 36.2655C33.0017 36.2655 32.7566 36.2177 32.5339 36.1219C32.3132 36.0262 32.1218 35.8885 31.9597 35.7089C31.7976 35.5272 31.6716 35.3075 31.5818 35.0497C31.4939 34.7919 31.45 34.5009 31.45 34.1766V33.9745C31.45 33.6483 31.4939 33.3573 31.5818 33.1014C31.6697 32.8436 31.7937 32.6239 31.9539 32.4423C32.116 32.2606 32.3074 32.1219 32.5281 32.0262C32.7507 31.9305 32.9958 31.8827 33.2634 31.8827C33.533 31.8827 33.7781 31.9305 33.9988 32.0262C34.2214 32.1219 34.4128 32.2606 34.573 32.4423C34.7351 32.6239 34.8601 32.8436 34.948 33.1014C35.0378 33.3573 35.0828 33.6483 35.0828 33.9745ZM34.1951 34.1766V33.9686C34.1951 33.7421 34.1746 33.5428 34.1335 33.371C34.0925 33.1991 34.032 33.0546 33.9519 32.9374C33.8718 32.8202 33.7742 32.7323 33.6589 32.6737C33.5437 32.6132 33.4119 32.5829 33.2634 32.5829C33.115 32.5829 32.9832 32.6132 32.8679 32.6737C32.7546 32.7323 32.658 32.8202 32.5779 32.9374C32.4998 33.0546 32.4402 33.1991 32.3992 33.371C32.3582 33.5428 32.3376 33.7421 32.3376 33.9686V34.1766C32.3376 34.4012 32.3582 34.6005 32.3992 34.7743C32.4402 34.9462 32.5007 35.0917 32.5808 35.2108C32.6609 35.328 32.7585 35.4169 32.8738 35.4774C32.989 35.538 33.1208 35.5682 33.2693 35.5682C33.4177 35.5682 33.5496 35.538 33.6648 35.4774C33.78 35.4169 33.8767 35.328 33.9548 35.2108C34.033 35.0917 34.0925 34.9462 34.1335 34.7743C34.1746 34.6005 34.1951 34.4012 34.1951 34.1766ZM37.9363 35.0907C37.9363 35.0145 37.9246 34.9462 37.9011 34.8856C37.8796 34.8231 37.8386 34.7665 37.7781 34.7157C37.7175 34.663 37.6326 34.6112 37.5232 34.5604C37.4138 34.5096 37.2722 34.4569 37.0984 34.4022C36.905 34.3397 36.7214 34.2694 36.5476 34.1913C36.3757 34.1132 36.2234 34.0223 36.0906 33.9188C35.9597 33.8134 35.8562 33.6913 35.78 33.5526C35.7058 33.4139 35.6687 33.2528 35.6687 33.0692C35.6687 32.8915 35.7078 32.7303 35.7859 32.5858C35.864 32.4393 35.9734 32.3143 36.114 32.2108C36.2546 32.1053 36.4207 32.0243 36.6121 31.9677C36.8054 31.911 37.0173 31.8827 37.2478 31.8827C37.5623 31.8827 37.8367 31.9393 38.071 32.0526C38.3054 32.1659 38.4871 32.3212 38.616 32.5184C38.7468 32.7157 38.8123 32.9413 38.8123 33.1952H37.9392C37.9392 33.0702 37.9128 32.9608 37.8601 32.8671C37.8093 32.7714 37.7312 32.6962 37.6257 32.6415C37.5222 32.5868 37.3914 32.5594 37.2332 32.5594C37.0808 32.5594 36.9539 32.5829 36.8523 32.6298C36.7507 32.6747 36.6746 32.7362 36.6238 32.8143C36.573 32.8905 36.5476 32.9764 36.5476 33.0721C36.5476 33.1444 36.5652 33.2098 36.6003 33.2684C36.6375 33.327 36.6921 33.3817 36.7644 33.4325C36.8367 33.4833 36.9255 33.5311 37.031 33.576C37.1365 33.621 37.2585 33.6649 37.3972 33.7079C37.6296 33.7782 37.8337 33.8573 38.0095 33.9452C38.1873 34.0331 38.3357 34.1317 38.4548 34.2411C38.574 34.3505 38.6638 34.4745 38.7244 34.6132C38.7849 34.7518 38.8152 34.9091 38.8152 35.0848C38.8152 35.2704 38.7791 35.4364 38.7068 35.5829C38.6345 35.7294 38.53 35.8534 38.3933 35.955C38.2566 36.0565 38.0935 36.1337 37.9041 36.1864C37.7146 36.2391 37.5027 36.2655 37.2683 36.2655C37.0574 36.2655 36.8494 36.2382 36.6443 36.1835C36.4392 36.1268 36.2527 36.0419 36.0847 35.9286C35.9187 35.8153 35.7859 35.6708 35.6863 35.495C35.5867 35.3192 35.5369 35.1112 35.5369 34.871H36.4187C36.4187 35.0038 36.4392 35.1161 36.4802 35.2079C36.5212 35.2997 36.5789 35.3739 36.6531 35.4305C36.7292 35.4872 36.8191 35.5282 36.9226 35.5536C37.0281 35.579 37.1433 35.5917 37.2683 35.5917C37.4207 35.5917 37.5457 35.5702 37.6433 35.5272C37.7429 35.4843 37.8162 35.4247 37.863 35.3485C37.9119 35.2723 37.9363 35.1864 37.9363 35.0907ZM41.3201 31.9413V36.2069H40.4441V31.9413H41.3201ZM42.6326 31.9413V32.6298H39.1521V31.9413H42.6326ZM45.9958 35.5214V36.2069H43.7253V35.5214H45.9958ZM44.0125 31.9413V36.2069H43.1335V31.9413H44.0125ZM45.7 33.6786V34.3466H43.7253V33.6786H45.7ZM45.9929 31.9413V32.6298H43.7253V31.9413H45.9929ZM46.5085 31.9413H48.0994C48.4255 31.9413 48.7058 31.9901 48.9402 32.0878C49.1765 32.1854 49.3582 32.33 49.4851 32.5214C49.6121 32.7128 49.6755 32.9481 49.6755 33.2274C49.6755 33.4559 49.6365 33.6522 49.5583 33.8163C49.4822 33.9784 49.3738 34.1141 49.2332 34.2235C49.0945 34.3309 48.9314 34.4169 48.7439 34.4813L48.4656 34.6278H47.0828L47.0769 33.9423H48.1052C48.2595 33.9423 48.3875 33.9149 48.489 33.8602C48.5906 33.8055 48.6667 33.7294 48.7175 33.6317C48.7703 33.5341 48.7966 33.4208 48.7966 33.2919C48.7966 33.1552 48.7712 33.037 48.7205 32.9374C48.6697 32.8378 48.5925 32.7616 48.489 32.7089C48.3855 32.6561 48.2556 32.6298 48.0994 32.6298H47.3875V36.2069H46.5085V31.9413ZM48.8933 36.2069L47.9207 34.3055L48.8494 34.2997L49.8337 36.1659V36.2069H48.8933ZM53.5076 34.6864H52.4207V34.0009H53.5076C53.6755 34.0009 53.8123 33.9735 53.9177 33.9188C54.0232 33.8622 54.1003 33.7841 54.1492 33.6844C54.198 33.5848 54.2224 33.4725 54.2224 33.3475C54.2224 33.2206 54.198 33.1024 54.1492 32.993C54.1003 32.8837 54.0232 32.7958 53.9177 32.7294C53.8123 32.663 53.6755 32.6298 53.5076 32.6298H52.7253V36.2069H51.8464V31.9413H53.5076C53.8416 31.9413 54.1277 32.0018 54.366 32.1229C54.6062 32.2421 54.7898 32.4071 54.9167 32.618C55.0437 32.829 55.1072 33.0702 55.1072 33.3417C55.1072 33.6171 55.0437 33.8553 54.9167 34.0565C54.7898 34.2577 54.6062 34.413 54.366 34.5223C54.1277 34.6317 53.8416 34.6864 53.5076 34.6864ZM58.5759 35.5214V36.2069H56.3054V35.5214H58.5759ZM56.5925 31.9413V36.2069H55.7136V31.9413H56.5925ZM58.28 33.6786V34.3466H56.3054V33.6786H58.28ZM58.573 31.9413V32.6298H56.3054V31.9413H58.573ZM61.0544 31.9413V36.2069H60.1785V31.9413H61.0544ZM62.3669 31.9413V32.6298H58.8865V31.9413H62.3669ZM65.7302 35.5214V36.2069H63.4597V35.5214H65.7302ZM63.7468 31.9413V36.2069H62.8679V31.9413H63.7468ZM65.4343 33.6786V34.3466H63.4597V33.6786H65.4343ZM65.7273 31.9413V32.6298H63.4597V31.9413H65.7273ZM66.2429 31.9413H67.8337C68.1599 31.9413 68.4402 31.9901 68.6746 32.0878C68.9109 32.1854 69.0925 32.33 69.2195 32.5214C69.3464 32.7128 69.4099 32.9481 69.4099 33.2274C69.4099 33.4559 69.3708 33.6522 69.2927 33.8163C69.2166 33.9784 69.1082 34.1141 68.9675 34.2235C68.8289 34.3309 68.6658 34.4169 68.4783 34.4813L68.2 34.6278H66.8171L66.8113 33.9423H67.8396C67.9939 33.9423 68.1218 33.9149 68.2234 33.8602C68.325 33.8055 68.4011 33.7294 68.4519 33.6317C68.5046 33.5341 68.531 33.4208 68.531 33.2919C68.531 33.1552 68.5056 33.037 68.4548 32.9374C68.4041 32.8378 68.3269 32.7616 68.2234 32.7089C68.1199 32.6561 67.99 32.6298 67.8337 32.6298H67.1218V36.2069H66.2429V31.9413ZM68.6277 36.2069L67.655 34.3055L68.5837 34.2997L69.5681 36.1659V36.2069H68.6277ZM72.3074 35.0907C72.3074 35.0145 72.2957 34.9462 72.2722 34.8856C72.2507 34.8231 72.2097 34.7665 72.1492 34.7157C72.0886 34.663 72.0037 34.6112 71.8943 34.5604C71.7849 34.5096 71.6433 34.4569 71.4695 34.4022C71.2761 34.3397 71.0925 34.2694 70.9187 34.1913C70.7468 34.1132 70.5945 34.0223 70.4617 33.9188C70.3308 33.8134 70.2273 33.6913 70.1511 33.5526C70.0769 33.4139 70.0398 33.2528 70.0398 33.0692C70.0398 32.8915 70.0789 32.7303 70.157 32.5858C70.2351 32.4393 70.3445 32.3143 70.4851 32.2108C70.6257 32.1053 70.7917 32.0243 70.9832 31.9677C71.1765 31.911 71.3884 31.8827 71.6189 31.8827C71.9333 31.8827 72.2078 31.9393 72.4421 32.0526C72.6765 32.1659 72.8582 32.3212 72.9871 32.5184C73.1179 32.7157 73.1833 32.9413 73.1833 33.1952H72.3103C72.3103 33.0702 72.2839 32.9608 72.2312 32.8671C72.1804 32.7714 72.1023 32.6962 71.9968 32.6415C71.8933 32.5868 71.7625 32.5594 71.6042 32.5594C71.4519 32.5594 71.325 32.5829 71.2234 32.6298C71.1218 32.6747 71.0457 32.7362 70.9949 32.8143C70.9441 32.8905 70.9187 32.9764 70.9187 33.0721C70.9187 33.1444 70.9363 33.2098 70.9714 33.2684C71.0085 33.327 71.0632 33.3817 71.1355 33.4325C71.2078 33.4833 71.2966 33.5311 71.4021 33.576C71.5076 33.621 71.6296 33.6649 71.7683 33.7079C72.0007 33.7782 72.2048 33.8573 72.3806 33.9452C72.5583 34.0331 72.7068 34.1317 72.8259 34.2411C72.9451 34.3505 73.0349 34.4745 73.0955 34.6132C73.156 34.7518 73.1863 34.9091 73.1863 35.0848C73.1863 35.2704 73.1501 35.4364 73.0779 35.5829C73.0056 35.7294 72.9011 35.8534 72.7644 35.955C72.6277 36.0565 72.4646 36.1337 72.2751 36.1864C72.0857 36.2391 71.8738 36.2655 71.6394 36.2655C71.4285 36.2655 71.2205 36.2382 71.0154 36.1835C70.8103 36.1268 70.6238 36.0419 70.4558 35.9286C70.2898 35.8153 70.157 35.6708 70.0574 35.495C69.9578 35.3192 69.908 35.1112 69.908 34.871H70.7898C70.7898 35.0038 70.8103 35.1161 70.8513 35.2079C70.8923 35.2997 70.95 35.3739 71.0242 35.4305C71.1003 35.4872 71.1902 35.5282 71.2937 35.5536C71.3992 35.579 71.5144 35.5917 71.6394 35.5917C71.7917 35.5917 71.9167 35.5702 72.0144 35.5272C72.114 35.4843 72.1873 35.4247 72.2341 35.3485C72.283 35.2723 72.3074 35.1864 72.3074 35.0907Z" fill="#2196F3"/>
</g>
<defs>
<filter id="filter0_d_1_815" x="0" y="0.699951" width="77.1863" height="48.623" filterUnits="userSpaceOnUse" color-interpolation-filters="sRGB">
<feFlood flood-opacity="0" result="BackgroundImageFix"/>
<feColorMatrix in="SourceAlpha" type="matrix" values="0 0 0 0 0 0 0 0 0 0 0 0 0 0 0 0 0 0 127 0" result="hardAlpha"/>
<feOffset dy="4"/>
<feGaussianBlur stdDeviation="2"/>
<feComposite in2="hardAlpha" operator="out"/>
<feColorMatrix type="matrix" values="0 0 0 0 0 0 0 0 0 0 0 0 0 0 0 0 0 0 0.25 0"/>
<feBlend mode="normal" in2="BackgroundImageFix" result="effect1_dropShadow_1_815"/>
<feBlend mode="normal" in="SourceGraphic" in2="effect1_dropShadow_1_815" result="shape"/>
</filter>
</defs>
</svg>
