<!-- Generated by IcoMoon.io -->
<svg version="1.1" xmlns="http://www.w3.org/2000/svg" width="58" height="32" viewBox="0 0 58 32">
<title>fooster</title>
<path fill="#2196f3" d="M11.129 8.386h-0.002c-1.563 0-2.83 1.106-2.83 2.47v0.002c0 1.364 1.267 2.47 2.83 2.47h0.002c1.563 0 2.83-1.106 2.83-2.47v-0.002c0-1.364-1.267-2.47-2.83-2.47z"></path>
<path fill="#2196f3" d="M32.020 7.596c-0.004-1.894-0.869-3.71-2.404-5.050s-3.616-2.094-5.787-2.099v0c-2.172 0.003-4.253 0.758-5.789 2.097s-2.401 3.156-2.405 5.051v0 10.447c0 0 16.383-1.592 16.385-10.445v-0.002z"></path>
<path fill="#2196f3" d="M2.56 21.472c0.004 1.318 0.606 2.581 1.674 3.514s2.516 1.458 4.026 1.462v0c1.51-0.004 2.958-0.529 4.026-1.461s1.67-2.195 1.674-3.512v0-7.269c0 0-11.4 1.109-11.4 7.267zM8.26 22.774c-0.295 0-0.584-0.076-0.829-0.219s-0.437-0.346-0.55-0.584c-0.113-0.238-0.143-0.5-0.085-0.752s0.2-0.485 0.409-0.667c0.209-0.182 0.475-0.306 0.764-0.356s0.59-0.024 0.862 0.074c0.273 0.099 0.506 0.266 0.67 0.48s0.252 0.466 0.252 0.724c0.001 0.171-0.037 0.341-0.112 0.5s-0.184 0.303-0.323 0.424c-0.139 0.121-0.303 0.218-0.485 0.284s-0.376 0.1-0.572 0.1v-0.005z"></path>
<path fill="#2196f3" d="M18.665 20.442v2.73h-0.563v-2.73h0.563zM19.753 21.609v0.439h-1.241v-0.439h1.241zM19.884 20.442v0.441h-1.372v-0.441h1.372zM22.453 21.744v0.129c0 0.208-0.028 0.394-0.084 0.559s-0.136 0.306-0.238 0.422c-0.103 0.115-0.225 0.203-0.368 0.264-0.141 0.061-0.298 0.092-0.471 0.092-0.171 0-0.328-0.031-0.471-0.092-0.141-0.061-0.264-0.149-0.367-0.264-0.104-0.116-0.184-0.257-0.242-0.422-0.056-0.165-0.084-0.351-0.084-0.559v-0.129c0-0.209 0.028-0.395 0.084-0.559 0.056-0.165 0.136-0.306 0.238-0.422 0.104-0.116 0.226-0.205 0.367-0.266 0.142-0.061 0.299-0.092 0.471-0.092 0.173 0 0.329 0.031 0.471 0.092 0.142 0.061 0.265 0.15 0.367 0.266 0.104 0.116 0.184 0.257 0.24 0.422 0.057 0.164 0.086 0.35 0.086 0.559zM21.885 21.873v-0.133c0-0.145-0.013-0.273-0.039-0.382s-0.065-0.203-0.116-0.277-0.114-0.131-0.188-0.169c-0.074-0.039-0.158-0.058-0.253-0.058s-0.179 0.019-0.253 0.058c-0.073 0.038-0.134 0.094-0.186 0.169-0.050 0.075-0.088 0.168-0.114 0.277s-0.039 0.238-0.039 0.382v0.133c0 0.144 0.013 0.271 0.039 0.383 0.026 0.11 0.065 0.203 0.116 0.279 0.051 0.075 0.114 0.132 0.188 0.171s0.158 0.058 0.253 0.058c0.095 0 0.179-0.019 0.253-0.058s0.136-0.096 0.186-0.171c0.050-0.076 0.088-0.169 0.114-0.279 0.026-0.111 0.039-0.239 0.039-0.383zM24.279 22.458c0-0.049-0.008-0.092-0.023-0.131-0.014-0.040-0.040-0.076-0.079-0.109-0.039-0.034-0.093-0.067-0.163-0.099s-0.161-0.066-0.272-0.101c-0.124-0.040-0.241-0.085-0.352-0.135-0.11-0.050-0.207-0.108-0.292-0.174-0.084-0.067-0.15-0.146-0.199-0.234-0.047-0.089-0.071-0.192-0.071-0.309 0-0.114 0.025-0.217 0.075-0.309 0.050-0.094 0.12-0.174 0.21-0.24 0.090-0.068 0.196-0.119 0.319-0.156 0.124-0.036 0.259-0.054 0.407-0.054 0.201 0 0.377 0.036 0.527 0.109s0.266 0.172 0.349 0.298c0.084 0.126 0.126 0.271 0.126 0.433h-0.559c0-0.080-0.017-0.15-0.051-0.21-0.032-0.061-0.082-0.109-0.15-0.144-0.066-0.035-0.15-0.053-0.251-0.053-0.098 0-0.179 0.015-0.244 0.045-0.065 0.029-0.114 0.068-0.146 0.118-0.032 0.049-0.049 0.104-0.049 0.165 0 0.046 0.011 0.088 0.034 0.126 0.024 0.038 0.059 0.073 0.105 0.105s0.103 0.063 0.171 0.092c0.068 0.029 0.146 0.057 0.234 0.084 0.149 0.045 0.279 0.096 0.392 0.152 0.114 0.056 0.209 0.119 0.285 0.189s0.134 0.149 0.173 0.238c0.039 0.089 0.058 0.189 0.058 0.302 0 0.119-0.023 0.225-0.069 0.319s-0.113 0.173-0.201 0.238c-0.087 0.065-0.192 0.114-0.313 0.148s-0.257 0.051-0.407 0.051c-0.135 0-0.268-0.017-0.399-0.052-0.131-0.036-0.251-0.091-0.358-0.163-0.106-0.073-0.191-0.165-0.255-0.277s-0.096-0.246-0.096-0.399h0.564c0 0.085 0.013 0.157 0.039 0.216s0.063 0.106 0.111 0.142c0.049 0.036 0.106 0.063 0.172 0.079 0.068 0.016 0.141 0.024 0.221 0.024 0.098 0 0.178-0.014 0.24-0.041 0.064-0.027 0.111-0.066 0.141-0.114 0.031-0.049 0.047-0.104 0.047-0.165zM26.445 20.442v2.73h-0.561v-2.73h0.561zM27.285 20.442v0.441h-2.228v-0.441h2.228zM29.437 22.734v0.439h-1.453v-0.439h1.453zM28.168 20.442v2.73h-0.563v-2.73h0.563zM29.248 21.554v0.428h-1.264v-0.428h1.264zM29.435 20.442v0.441h-1.451v-0.441h1.451zM29.765 20.442h1.018c0.209 0 0.388 0.031 0.538 0.094 0.151 0.062 0.268 0.155 0.349 0.277s0.122 0.273 0.122 0.452c0 0.146-0.025 0.272-0.075 0.377-0.049 0.104-0.118 0.191-0.208 0.261-0.089 0.069-0.193 0.124-0.313 0.165l-0.178 0.094h-0.885l-0.004-0.439h0.658c0.099 0 0.181-0.018 0.246-0.053s0.114-0.084 0.146-0.146c0.034-0.062 0.051-0.135 0.051-0.217 0-0.087-0.016-0.163-0.049-0.227s-0.082-0.113-0.148-0.146c-0.066-0.034-0.149-0.051-0.249-0.051h-0.456v2.289h-0.563v-2.73zM31.292 23.172l-0.622-1.217 0.594-0.004 0.63 1.194v0.026h-0.602zM34.245 22.199h-0.696v-0.439h0.696c0.107 0 0.195-0.018 0.262-0.053 0.068-0.036 0.117-0.086 0.148-0.15s0.047-0.136 0.047-0.216c0-0.081-0.016-0.157-0.047-0.227s-0.081-0.126-0.148-0.169c-0.067-0.043-0.155-0.064-0.262-0.064h-0.501v2.289h-0.563v-2.73h1.063c0.214 0 0.397 0.039 0.549 0.116 0.154 0.076 0.271 0.182 0.352 0.317s0.122 0.289 0.122 0.463c0 0.176-0.041 0.329-0.122 0.457s-0.199 0.228-0.352 0.298c-0.153 0.070-0.336 0.105-0.549 0.105zM37.489 22.734v0.439h-1.453v-0.439h1.453zM36.219 20.442v2.73h-0.563v-2.73h0.563zM37.299 21.554v0.428h-1.264v-0.428h1.264zM37.487 20.442v0.441h-1.451v-0.441h1.451zM39.075 20.442v2.73h-0.561v-2.73h0.561zM39.915 20.442v0.441h-2.227v-0.441h2.227zM42.067 22.734v0.439h-1.453v-0.439h1.453zM40.798 20.442v2.73h-0.563v-2.73h0.563zM41.878 21.554v0.428h-1.264v-0.428h1.264zM42.065 20.442v0.441h-1.451v-0.441h1.451zM42.395 20.442h1.018c0.209 0 0.388 0.031 0.538 0.094 0.151 0.062 0.267 0.155 0.349 0.277s0.122 0.273 0.122 0.452c0 0.146-0.025 0.272-0.075 0.377-0.049 0.104-0.118 0.191-0.208 0.261-0.089 0.069-0.193 0.124-0.313 0.165l-0.178 0.094h-0.885l-0.004-0.439h0.658c0.099 0 0.181-0.018 0.246-0.053s0.114-0.084 0.146-0.146c0.034-0.062 0.051-0.135 0.051-0.217 0-0.087-0.016-0.163-0.049-0.227s-0.082-0.113-0.148-0.146c-0.066-0.034-0.149-0.051-0.249-0.051h-0.456v2.289h-0.563v-2.73zM43.922 23.172l-0.623-1.217 0.594-0.004 0.63 1.194v0.026h-0.602zM46.277 22.458c0-0.049-0.008-0.092-0.023-0.131-0.014-0.040-0.040-0.076-0.079-0.109-0.039-0.034-0.093-0.067-0.163-0.099s-0.161-0.066-0.272-0.101c-0.124-0.040-0.241-0.085-0.352-0.135-0.11-0.050-0.208-0.108-0.292-0.174-0.084-0.067-0.15-0.146-0.199-0.234-0.047-0.089-0.071-0.192-0.071-0.309 0-0.114 0.025-0.217 0.075-0.309 0.050-0.094 0.12-0.174 0.21-0.24 0.090-0.068 0.196-0.119 0.319-0.156 0.124-0.036 0.259-0.054 0.407-0.054 0.201 0 0.377 0.036 0.527 0.109s0.266 0.172 0.349 0.298c0.084 0.126 0.126 0.271 0.126 0.433h-0.559c0-0.080-0.017-0.15-0.051-0.21-0.032-0.061-0.083-0.109-0.15-0.144-0.066-0.035-0.15-0.053-0.251-0.053-0.097 0-0.179 0.015-0.244 0.045-0.065 0.029-0.114 0.068-0.146 0.118-0.032 0.049-0.049 0.104-0.049 0.165 0 0.046 0.011 0.088 0.034 0.126 0.024 0.038 0.059 0.073 0.105 0.105s0.103 0.063 0.171 0.092c0.068 0.029 0.146 0.057 0.234 0.084 0.149 0.045 0.279 0.096 0.392 0.152 0.114 0.056 0.209 0.119 0.285 0.189s0.134 0.149 0.173 0.238c0.039 0.089 0.058 0.189 0.058 0.302 0 0.119-0.023 0.225-0.069 0.319s-0.113 0.173-0.201 0.238c-0.087 0.065-0.192 0.114-0.313 0.148s-0.257 0.051-0.407 0.051c-0.135 0-0.268-0.017-0.399-0.052-0.131-0.036-0.251-0.091-0.358-0.163-0.106-0.073-0.191-0.165-0.255-0.277s-0.096-0.246-0.096-0.399h0.564c0 0.085 0.013 0.157 0.039 0.216s0.063 0.106 0.111 0.142c0.049 0.036 0.106 0.063 0.172 0.079 0.068 0.016 0.141 0.024 0.221 0.024 0.097 0 0.177-0.014 0.24-0.041 0.064-0.027 0.111-0.066 0.141-0.114 0.031-0.049 0.047-0.104 0.047-0.165z"></path>
</svg>
